<svg id="Layer_1" data-name="Layer 1" xmlns="http://www.w3.org/2000/svg" viewBox="0 0 216.23 109.58">
  <defs>
    <style>
      .cls-1 {
        stroke-width: 0px;
      }
    </style>
  </defs>
  <path class="cls-1" d="m117.13.14h19.15v53.39c.2.12.39.25.59.37.53-.63,1.01-1.3,1.59-1.89,16.44-16.54,32.91-33.04,49.28-49.64,1.73-1.75,3.42-2.4,5.86-2.35,7.27.15,14.55.05,22.35.05-.69.77-1.11,1.27-1.57,1.75-25.46,26.64-50.92,53.29-76.43,79.89-1.18,1.23-1.69,2.43-1.67,4.11.09,7.7.04,15.4.04,23.24h-19.2V.14Z"/>
  <path class="cls-1" d="m89.41.07v17.32c-.85.04-1.63.1-2.4.1-9.1,0-18.2,0-27.3,0-8.73.02-16.84,2-24,7.06-9.26,6.55-13.82,15.58-14.7,26.5-.22,2.72-.03,5.48-.03,8.34H.13c-.46-7.65.31-15.11,2.8-22.35C9.59,17.64,24.04,6.62,43.94,1.91c5.52-1.3,11.36-1.6,17.07-1.77,9.38-.28,18.77-.08,28.41-.08Z"/>
  <path class="cls-1" d="m.14,109.41v-17.28c.84-.04,1.67-.1,2.51-.11,9.97-.05,19.95.1,29.92-.19,18.2-.53,31.77-11.61,35.41-28.87.75-3.54.66-7.26.96-11.03h20.52c.16,5.42-.02,10.79-1.45,15.97-5.99,21.72-20.62,34.86-42.99,39.85-4.99,1.11-10.21,1.53-15.35,1.67-9.31.26-18.64.08-27.96.07-.49,0-.98-.06-1.57-.1Z"/>
  <path class="cls-1" d="m216.23,109.2c-8,0-15.42.02-22.84-.04-.61,0-1.39-.44-1.79-.91-9.1-10.76-18.16-21.56-27.36-32.51,4.47-4.74,8.92-9.45,13.51-14.31,12.8,15.88,25.46,31.61,38.48,47.76Z"/>
</svg>